<svg width="32" height="32" xmlns="http://www.w3.org/2000/svg" xmlns:xlink="http://www.w3.org/1999/xlink"><defs><path id="a" d="M.005.179h8.4v8.864h-8.4z"/></defs><g fill="none" fill-rule="evenodd"><path d="M29.707 15.752c0 7.872-6.314 14.252-14.103 14.252-7.79 0-14.104-6.38-14.104-14.252C1.5 7.881 7.814 1.5 15.604 1.5c7.79 0 14.103 6.38 14.103 14.252z" stroke="#1D1D1B" stroke-width="2"/><path d="M23.49 14.248c-.086.517-.554.776-1.133.776h-1.206l.258-1.477h1.022c.616 0 1.182.012 1.06.701m-.247 3.214c-.111.664-.677.812-1.391.812h-1.269l.283-1.637h.924c.923 0 1.588.05 1.453.825m3.053-3.755c.308-1.76-1.194-2.229-3.189-2.229h-4.187l-1.562 8.864h4.272c2.302 0 3.94-.689 4.284-2.671.173-.96-.197-1.785-1.12-2.031.628-.358 1.342-1.022 1.502-1.933" fill="#1D1D1B"/><g transform="translate(9.295 11.3)"><mask id="b" fill="#fff"><use xlink:href="#a"/></mask><path d="M4.248 6.027L5.713 2.85l.37 3.177H4.248zM7.683.179H4.728L2.283 4.752.005 9.043h2.827l.542-1.17h2.893l.136 1.17h1.14l.862-4.896L7.683.18z" fill="#1D1D1B" mask="url(#b)"/></g><path fill="#1D1D1B" d="M9.82 18.274H8.274l1.194-6.796H6.564L5 20.342h3.721z"/></g></svg>