<svg width="210" height="30" xmlns="http://www.w3.org/2000/svg" xmlns:xlink="http://www.w3.org/1999/xlink"><defs><path id="a" d="M0 .388v28.07h20.498V.388H0z"/><path id="c" d="M.347 28.154h27.584V.236H.347z"/><path id="e" d="M.083 28.375h24.96V.377H.082v27.998z"/><path id="g" d="M59.95 28.28V.236H.099V28.28H59.95z"/></defs><g fill="none" fill-rule="evenodd"><g transform="translate(.152 .55)"><mask id="b" fill="#fff"><use xlink:href="#a"/></mask><path d="M19.633 7.815c-.435-.11-1.527-.22-2.666-.22-2.666 0-5.168.929-5.925 1.584L8.699 28.458H0L3.317 1.15h5.225l.811 1.966c1.523-1.31 4.684-2.728 8.754-2.728 1.092 0 2.014.218 2.392.379l-.865 7.048z" fill="#562660" mask="url(#b)"/></g><g transform="translate(20.586 .85)"><mask id="d" fill="#fff"><use xlink:href="#c"/></mask><path d="M19.439 27.394l-.864-1.956c-3.242 1.846-6.762 2.716-9.736 2.716-7.354 0-8.974-3.91-8.38-9.122L2.783.236h8.656L9.273 17.727c-.217 2.008.324 3.366 2.65 3.366 2.11 0 4.115-.868 4.976-1.413L19.28.236h8.651l-3.298 27.158h-5.194z" fill="#562660" mask="url(#d)"/></g><path d="M56.494 1.822l.81 1.957c3.3-1.846 6.82-2.716 9.796-2.716 7.362 0 8.984 3.912 8.335 9.132l-2.271 18.81h-8.662l2.111-17.507c.275-2.01-.269-3.368-2.6-3.368-2.11 0-4.11.87-5.03 1.415l-2.329 19.46h-8.66l3.303-27.183h5.197zM84.154 1.74l.816 1.963C88.28 1.851 91.81.979 94.795.979c7.383 0 9.014 3.924 8.363 9.16l-2.282 18.867h-8.683l2.113-17.561c.273-2.016-.269-3.378-2.6-3.378-2.123 0-4.132.872-5.054 1.419l-2.33 19.52h-8.693l3.31-27.266h5.215z" fill="#562660"/><g transform="translate(104.37 .675)"><mask id="f" fill="#fff"><use xlink:href="#e"/></mask><path d="M13.072 11.989c2.375 0 3.433-1.325 3.592-2.652.151-1.326-.585-2.597-2.956-2.597-2.854 0-4.385 1.91-4.753 5.249h4.117zM8.32 17.184c-.635 3.45 1.002 4.457 5.117 4.457 3.957 0 7.025-.797 9.03-1.752l-.792 6.63c-3.22 1.272-6.971 1.856-10.136 1.856-8.716 0-12.409-4.456-11.25-14.002C1.454 4.83 6.206.377 14.393.377c8.13 0 11.243 2.968 10.557 8.377-.628 5.41-4.487 8.43-12.618 8.43H8.32z" fill="#562660" mask="url(#f)"/></g><path d="M149.573 8.563c-.434-.108-1.51-.217-2.639-.217-2.638 0-5.117.92-5.867 1.568l-2.318 19.091h-8.62l3.29-27.041h5.17l.808 1.946c1.504-1.297 4.632-2.701 8.665-2.701 1.077 0 1.999.215 2.373.375l-.862 6.98z" fill="#562660"/><path d="M183.69 4.675v.004c-.015 0-.028-.004-.042-.004-1.321 0-2.534 1.077-2.695 2.394l-.358 2.93-.667 5.457-.255 2.083-8.033-12.864h-4.803l-1.18 9.648-.888 7.254-.292 2.394h2.135v-.027c.088.01.174.027.266.027 1.321 0 2.534-1.078 2.694-2.394l1.281-10.47 8.034 12.864h4.803l1.18-9.648.887-7.254.292-2.394h-2.36zM162.075 4.675v.004c-.014 0-.028-.004-.042-.004-1.32 0-2.533 1.077-2.694 2.394l-.358 2.93-.668 5.457-.748 6.12v.001l-.293 2.394h2.291l.001-.011c.038.002.071.01.11.01 1.32 0 2.533-1.077 2.694-2.393l1.774-14.508.293-2.394h-2.36zM207.37 7.069l.294-2.394h-2.36v.004c-.015 0-.028-.004-.042-.004-1.321 0-2.533 1.077-2.694 2.394l-.358 2.93-.668 5.457-.255 2.083-8.033-12.864h-4.803l-1.18 9.648-.887 7.254-.293 2.394h2.135v-.027c.089.01.174.027.267.027 1.32 0 2.533-1.078 2.694-2.394l1.28-10.47 8.033 12.864h4.804l1.18-9.648.887-7.254z" fill="#FFF"/><g><g transform="translate(150 .794)"><mask id="h" fill="#fff"><use xlink:href="#g"/></mask><path fill="#161412" mask="url(#h)" d="M.098 28.28H56.49L59.95.236H3.562z"/></g><path d="M181.586 5.874v.005c-.014 0-.027-.005-.041-.005-1.293 0-2.48 1.052-2.637 2.338l-.35 2.86-.653 5.328-.25 2.034-7.86-12.56h-4.7l-1.155 9.42-.868 7.082-.286 2.338h2.09v-.027c.086.01.17.027.26.027 1.292 0 2.48-1.053 2.636-2.338l1.253-10.222 7.86 12.56h4.7l1.155-9.42.868-7.082.286-2.338h-2.308zM160.601 5.874v.005c-.014 0-.027-.005-.041-.005-1.292 0-2.478 1.052-2.636 2.338l-.35 2.86-.654 5.328-.732 5.976-.287 2.338h2.242v-.011c.038.001.07.01.108.01 1.293 0 2.48-1.052 2.637-2.337l1.736-14.164.286-2.338h-2.309zM204.263 8.212l.287-2.338h-2.31v.005c-.014 0-.027-.005-.04-.005-1.293 0-2.48 1.052-2.636 2.338l-.351 2.86-.654 5.329-.249 2.033-7.86-12.56h-4.7l-1.154 9.42-.869 7.082-.286 2.338h2.09v-.027c.086.01.17.027.26.027 1.292 0 2.478-1.053 2.636-2.338l1.253-10.222 7.86 12.56h4.7l1.155-9.42.868-7.082z" fill="#FFF"/></g></g></svg>